<?xml version="1.0" standalone="no"?>
<!DOCTYPE svg PUBLIC "-//W3C//DTD SVG 20010904//EN"
 "http://www.w3.org/TR/2001/REC-SVG-20010904/DTD/svg10.dtd">
<svg version="1.0" xmlns="http://www.w3.org/2000/svg"
 width="512.000000pt" height="512.000000pt" viewBox="0 0 512.000000 512.000000"
 preserveAspectRatio="xMidYMid meet">

<g transform="translate(0.000000,512.000000) scale(0.100000,-0.100000)"
fill="#000000" stroke="none">
<path d="M3875 4906 c-388 -151 -832 -574 -1206 -1151 -54 -82 -104 -158 -111
-167 -12 -16 -21 -10 -98 58 -514 455 -1090 711 -1618 717 l-134 2 -24 -28
c-24 -28 -24 -30 -24 -241 l0 -214 -37 -6 c-135 -23 -228 -50 -250 -72 -22
-22 -23 -29 -23 -182 l0 -160 -113 -3 c-103 -4 -117 -7 -154 -31 -79 -52 -73
85 -73 -1603 0 -1688 -6 -1551 73 -1603 l41 -27 1000 0 c781 0 1012 3 1049 13
27 7 124 49 218 93 l169 80 171 -81 c94 -44 192 -86 217 -93 36 -9 282 -12
1048 -12 l1000 0 41 27 c79 52 73 -85 73 1603 0 1688 6 1551 -73 1603 -37 24
-51 27 -154 31 l-113 3 0 163 c0 163 0 164 -25 184 -23 17 -131 47 -237 66
l-38 6 0 213 c0 204 -1 215 -22 241 l-21 28 -181 -6 c-100 -3 -190 -7 -201 -9
-19 -3 -20 4 -25 269 -5 293 -6 295 -60 307 -14 3 -50 -4 -85 -18z m-5 -1556
l0 -1380 -102 -51 c-354 -177 -714 -530 -1049 -1025 l-74 -109 -3 310 c-1 171
-1 765 0 1320 l3 1010 69 110 c351 562 712 950 1076 1156 36 20 68 37 73 38 4
1 7 -620 7 -1379z m-2899 850 c349 -36 739 -191 1079 -429 97 -67 285 -220
368 -298 l72 -68 0 -1353 c0 -984 -3 -1352 -11 -1352 -6 0 -36 23 -67 51 -30
27 -110 92 -178 142 -430 322 -868 499 -1321 533 l-93 7 0 1388 0 1389 24 0
c13 0 70 -5 127 -10z m3339 -1380 l0 -1390 -22 0 c-69 0 -257 -24 -357 -45
-298 -64 -593 -193 -886 -386 -59 -38 -103 -64 -99 -57 4 7 35 49 68 93 164
217 404 462 583 594 97 73 265 168 353 201 19 7 43 20 53 28 16 14 17 82 17
1168 l0 1152 31 7 c26 6 147 18 237 24 l22 1 0 -1390z m-3652 -297 l-3 -1198
-2 1189 c-3 937 -6 1192 -16 1198 -8 5 -7 8 6 8 16 0 17 -63 15 -1197z m3819
-1065 c-1 -68 -3 -15 -3 117 0 132 2 187 3 123 2 -64 2 -172 0 -240z m-3774
-187 c-4 -6 -43 30 -43 40 0 5 10 -2 23 -14 13 -12 22 -24 20 -26z m60 -8 c-7
-2 -21 -2 -30 0 -10 3 -4 5 12 5 17 0 24 -2 18 -5z m135 0 c-16 -2 -40 -2 -55
0 -16 2 -3 4 27 4 30 0 43 -2 28 -4z m3465 0 c-29 -2 -77 -2 -105 0 -29 2 -6
3 52 3 58 0 81 -1 53 -3z m-3350 -10 c-7 -2 -19 -2 -25 0 -7 3 -2 5 12 5 14 0
19 -2 13 -5z m3130 0 c-7 -2 -19 -2 -25 0 -7 3 -2 5 12 5 14 0 19 -2 13 -5z
m-3056 -9 c-3 -3 -12 -4 -19 -1 -8 3 -5 6 6 6 11 1 17 -2 13 -5z m2980 0 c-3
-3 -12 -4 -19 -1 -8 3 -5 6 6 6 11 1 17 -2 13 -5z m-2427 -174 c8 -5 11 -10 5
-10 -5 0 -17 5 -25 10 -8 5 -10 10 -5 10 6 0 17 -5 25 -10z m-482 -57 c-38 -2
-98 -2 -135 0 -38 2 -7 3 67 3 74 0 105 -1 68 -3z m622 -19 c0 -2 -9 0 -20 6
-11 6 -20 13 -20 16 0 2 9 0 20 -6 11 -6 20 -13 20 -16z m2303 19 c-24 -2 -62
-2 -85 0 -24 2 -5 4 42 4 47 0 66 -2 43 -4z m-3175 -10 c-16 -2 -40 -2 -55 0
-16 2 -3 4 27 4 30 0 43 -2 28 -4z m420 0 c-16 -2 -40 -2 -55 0 -16 2 -3 4 27
4 30 0 43 -2 28 -4z m2500 0 c-10 -2 -26 -2 -35 0 -10 3 -2 5 17 5 19 0 27 -2
18 -5z m440 0 c-10 -2 -26 -2 -35 0 -10 3 -2 5 17 5 19 0 27 -2 18 -5z m-3470
-10 c-10 -2 -26 -2 -35 0 -10 3 -2 5 17 5 19 0 27 -2 18 -5z m630 0 c-10 -2
-28 -2 -40 0 -13 2 -5 4 17 4 22 1 32 -1 23 -4z m2285 0 c-7 -2 -19 -2 -25 0
-7 3 -2 5 12 5 14 0 19 -2 13 -5z m650 0 c-7 -2 -19 -2 -25 0 -7 3 -2 5 12 5
14 0 19 -2 13 -5z m-3635 -10 c-10 -2 -26 -2 -35 0 -10 3 -2 5 17 5 19 0 27
-2 18 -5z m765 0 c-7 -2 -19 -2 -25 0 -7 3 -2 5 12 5 14 0 19 -2 13 -5z m2934
1 c-3 -3 -12 -4 -19 -1 -8 3 -5 6 6 6 11 1 17 -2 13 -5z m-3774 -11 c-7 -2
-19 -2 -25 0 -7 3 -2 5 12 5 14 0 19 -2 13 -5z m910 0 c-7 -2 -21 -2 -30 0
-10 3 -4 5 12 5 17 0 24 -2 18 -5z m2934 1 c-3 -3 -12 -4 -19 -1 -8 3 -5 6 6
6 11 1 17 -2 13 -5z m-3912 -14 c-16 -4 -39 -8 -50 -8 -16 0 -15 2 5 8 14 4
36 8 50 8 22 0 22 -1 -5 -8z m1028 3 c-7 -2 -19 -2 -25 0 -7 3 -2 5 12 5 14 0
19 -2 13 -5z m2934 1 c-3 -3 -12 -4 -19 -1 -8 3 -5 6 6 6 11 1 17 -2 13 -5z
m-2880 -10 c-3 -3 -12 -4 -19 -1 -8 3 -5 6 6 6 11 1 17 -2 13 -5z m50 -10 c-3
-3 -12 -4 -19 -1 -8 3 -5 6 6 6 11 1 17 -2 13 -5z m40 -10 c-3 -3 -12 -4 -19
-1 -8 3 -5 6 6 6 11 1 17 -2 13 -5z m40 -10 c-3 -3 -12 -4 -19 -1 -8 3 -5 6 6
6 11 1 17 -2 13 -5z m40 -10 c-3 -3 -12 -4 -19 -1 -8 3 -5 6 6 6 11 1 17 -2
13 -5z m108 -25 c-4 -5 -12 -9 -18 -8 -9 0 -8 2 1 6 6 2 9 10 6 15 -4 7 -2 8
5 4 6 -4 9 -12 6 -17z m-38 5 c-3 -3 -12 -4 -19 -1 -8 3 -5 6 6 6 11 1 17 -2
13 -5z m1266 -9 c-3 -9 -8 -14 -10 -11 -3 3 -2 9 2 15 9 16 15 13 8 -4z
m-1175 -20 c-8 -8 -48 8 -42 16 3 5 14 4 25 -2 12 -6 19 -12 17 -14z m-1045
-22 c-7 -2 -19 -2 -25 0 -7 3 -2 5 12 5 14 0 19 -2 13 -5z m310 0 c-7 -2 -21
-2 -30 0 -10 3 -4 5 12 5 17 0 24 -2 18 -5z m2625 0 c-10 -2 -28 -2 -40 0 -13
2 -5 4 17 4 22 1 32 -1 23 -4z m330 0 c-10 -2 -28 -2 -40 0 -13 2 -5 4 17 4
22 1 32 -1 23 -4z m-461 -9 c-3 -3 -12 -4 -19 -1 -8 3 -5 6 6 6 11 1 17 -2 13
-5z m566 -1 c-7 -2 -19 -2 -25 0 -7 3 -2 5 12 5 14 0 19 -2 13 -5z m-646 -9
c-3 -3 -12 -4 -19 -1 -8 3 -5 6 6 6 11 1 17 -2 13 -5z m720 0 c-3 -3 -12 -4
-19 -1 -8 3 -5 6 6 6 11 1 17 -2 13 -5z m-780 -10 c-3 -3 -12 -4 -19 -1 -8 3
-5 6 6 6 11 1 17 -2 13 -5z m991 -105 l-3 -64 -765 0 -765 0 763 2 764 3 -4
70 c-2 38 1 65 5 61 4 -4 7 -37 5 -72z m-3325 -62 l762 -2 -767 -3 -768 -2 2
73 2 72 3 -67 4 -68 762 -3z m1787 13 c0 -5 -2 -10 -4 -10 -3 0 -8 5 -11 10
-3 6 -1 10 4 10 6 0 11 -4 11 -10z"/>
<path d="M1085 3618 c-43 -25 -57 -68 -35 -108 15 -28 37 -37 126 -55 130 -27
345 -103 492 -174 171 -84 292 -158 449 -272 122 -89 151 -101 193 -79 25 13
41 65 30 94 -18 48 -314 252 -524 362 -201 104 -400 178 -603 223 -107 24
-102 24 -128 9z"/>
<path d="M1061 2924 c-27 -34 -27 -67 2 -98 17 -20 43 -30 112 -45 322 -69
657 -231 970 -467 67 -51 98 -68 122 -68 58 0 97 59 71 109 -32 60 -339 265
-568 379 -189 94 -324 145 -495 187 -152 37 -187 37 -214 3z"/>
<path d="M1065 2175 c-44 -43 -22 -117 38 -129 116 -25 261 -65 352 -98 216
-79 485 -229 701 -392 48 -37 97 -66 110 -66 36 0 77 42 77 78 0 41 -23 66
-149 158 -300 219 -618 371 -939 450 -128 31 -159 31 -190 -1z"/>
</g>
</svg>
